<svg width="30" height="17" viewBox="0 0 30 17" fill="none" xmlns="http://www.w3.org/2000/svg">
<path d="M0.937476 2.37495H29.0624C29.58 2.37495 29.9999 1.95492 29.9999 1.43748C29.9999 0.919955 29.5799 0.5 29.0624 0.5H0.937476C0.419955 0.5 0 0.920033 0 1.43748C0 1.95492 0.420033 2.37495 0.937476 2.37495Z" fill="black"/>
<path d="M29.0624 8H0.937476C0.419955 8 0 8.42003 0 8.93747C0 9.45491 0.420033 9.87494 0.937476 9.87494H29.0624C29.58 9.87494 29.9999 9.45491 29.9999 8.93747C29.9999 8.42003 29.58 8 29.0624 8Z" fill="black"/>
<path d="M29.0624 15H0.937476C0.419955 15 0 15.42 0 15.9375C0 16.4549 0.420033 16.8749 0.937476 16.8749H29.0624C29.58 16.8749 29.9999 16.4549 29.9999 15.9375C29.9999 15.42 29.58 15 29.0624 15Z" fill="black"/>
</svg>
